<svg width="43" height="55" viewBox="0 0 43 55" fill="none" xmlns="http://www.w3.org/2000/svg">
<g id="autocredit_idea_desktop_40x40_01-12-2020 1" clip-path="url(#clip0_435_127)">
<g id="Group 162">
<g id="Vector">
<path fill-rule="evenodd" clip-rule="evenodd" d="M19.3991 0.27942C16.9263 0.916822 14.8099 2.63424 13.6779 4.92184C13.2486 5.78928 12.8067 7.12504 12.8067 7.5548C12.8067 8.13081 13.4163 8.71981 14.0123 8.71981C14.7004 8.71981 15.0171 8.39252 15.3324 7.35508C15.694 6.16542 16.0113 5.56297 16.7016 4.75588C19.7306 1.21379 25.2748 2.04105 27.2915 6.33601C27.6072 7.00837 28.0017 8.87815 27.8588 9.02529C27.8184 9.06697 27.4524 8.97062 27.0456 8.81123C25.0082 8.0131 21.1763 7.66654 18.7952 8.06493C15.4738 8.62077 12.3602 10.2287 9.86056 12.6791C6.53045 15.9435 4.83917 19.8626 4.46073 25.1913L4.36351 26.5605L3.70948 26.7302C2.80987 26.9638 2.30667 27.2533 1.54833 27.9741C-0.896511 30.2975 -0.365641 34.4947 2.57385 36.0814L3.34944 36.5001L3.44057 37.7795C3.74295 42.0253 5.85875 45.9237 9.17292 48.3417C9.49472 48.5764 9.75928 48.81 9.76102 48.8606L12.2206 50.7851C12.3515 50.7851 13.1074 51.274 13.9005 51.8714C17.2587 54.4017 18.7545 55.0116 21.5724 54.9998C23.5842 54.9915 25.3755 54.4573 27.0192 53.3756C28.522 52.3867 34.4888 47.8416 35.2981 47.0693C37.7812 44.6995 39.3028 41.3824 39.5594 37.7795L39.6506 36.5001L40.4262 36.0814C43.3656 34.4947 43.8965 30.2975 41.4517 27.9741C40.6933 27.2533 40.1901 26.9638 39.2905 26.7302L38.6365 26.5605L38.5393 25.1913C38.2427 21.0154 37.1581 17.7721 35.1106 14.9394C34.1551 13.6175 32.2879 11.745 31.1453 10.9629L30.3382 10.4103L30.3357 9.27371C30.3222 3.19187 25.0193 -1.16926 19.3991 0.27942ZM11.1044 14.8999C13.6194 12.2376 16.6151 10.8216 20.6307 10.397C22.0335 10.2487 24.6006 10.6275 26.2813 11.2306C29.9364 12.5424 32.7282 15.0752 34.4752 18.664C35.2683 20.2933 35.6724 21.6673 35.9154 23.5607C36.0329 24.4768 35.9775 24.5012 34.675 24.1065C32.0915 23.3236 29.401 21.0544 27.2936 17.8805C25.9866 15.9121 25.4386 15.8146 24.2862 17.3453C21.5168 21.0238 15.6251 23.1296 9.09193 22.776L7.18824 22.6729L7.3963 21.7538C7.9095 19.485 9.43285 16.6695 11.1044 14.8999ZM17.588 24.4124C20.25 23.6788 22.8524 22.2762 24.5018 20.6859C25.23 19.9838 25.5243 19.7836 25.638 19.913C25.7226 20.009 26.1724 20.5779 26.6376 21.1772C28.1641 23.1432 30.4632 25.0101 32.5584 25.9851C33.313 26.3363 34.4868 26.6782 35.9378 26.9694C36.2108 27.024 36.2606 27.1649 36.3438 28.1157C36.3959 28.712 36.4645 29.3678 36.4959 29.5732C36.5447 29.8908 36.3322 30.1399 35.0757 31.2383L33.5982 32.5299L33.3303 32.0006C32.9444 31.2385 31.7946 30.106 30.968 29.6742C28.7505 28.5156 26.1441 28.9534 24.3698 30.7827C23.7574 31.4143 23.2336 32.3267 22.899 33.345C22.8256 33.5682 22.6213 33.6064 21.5 33.6064C20.3787 33.6064 20.1744 33.5682 20.101 33.345C19.3274 30.9905 17.7212 29.5152 15.4966 29.1158C14.3266 28.9058 13.1317 29.0997 12.0213 29.6797C11.1861 30.116 9.90142 31.4101 9.62816 32.0902L9.44053 32.5574L8.40704 31.6417C7.8385 31.1381 7.17042 30.5439 6.92223 30.3213L6.4709 29.9166L6.66085 27.9898C6.76546 26.9299 6.85442 25.8856 6.85862 25.6692L6.8663 25.2757L10.0176 25.2793C13.4418 25.2835 15.128 25.0903 17.588 24.4124ZM2.53183 32.313C2.28711 31.3992 2.48344 30.6631 3.16861 29.9259C3.8719 29.1691 4.13386 29.097 4.04229 29.6852C4.00708 29.9111 3.90493 30.9027 3.8151 31.8886C3.72542 32.8745 3.61994 33.7147 3.58097 33.7557C3.4384 33.9053 2.67831 32.8601 2.53183 32.313ZM39.1849 31.8886C39.0951 30.9027 38.9929 29.9111 38.9577 29.6852C38.8661 29.097 39.1281 29.1691 39.8314 29.9259C40.5166 30.6631 40.7129 31.3992 40.4682 32.313C40.3217 32.8601 39.5616 33.9053 39.419 33.7557C39.3801 33.7147 39.2746 32.8745 39.1849 31.8886ZM11.4887 35.6441C11.0837 34.0936 12.0397 32.2852 13.5658 31.7146C14.6004 31.3277 15.9945 31.644 16.8414 32.458C17.8556 33.4326 18.1018 35.2466 17.3898 36.4992C15.9335 39.061 12.2414 38.5261 11.4887 35.6441ZM25.2154 34.8899C25.2194 33.4272 25.8451 32.4367 27.1506 31.8264C27.8913 31.4802 28.5358 31.4386 29.3353 31.6856C30.8892 32.1657 31.9269 34.0531 31.5113 35.6441C30.5386 39.3686 25.2046 38.7296 25.2154 34.8899ZM6.93179 41.7753C5.97031 39.6735 5.724 37.8784 5.99625 34.9579L6.17736 33.0159L6.55798 33.3223C6.76749 33.4908 7.40253 34.0571 7.96948 34.5807C8.81287 35.3599 9.01615 35.6361 9.08831 36.1008C9.31462 37.558 10.6924 39.3734 12.1176 40.0922C14.0491 41.0666 16.529 40.7602 18.1919 39.3419C18.9477 38.6971 19.8716 37.3099 19.9943 36.6354L20.0834 36.1459H21.009H21.9347V37.6397V39.1335H21.0905C20.3989 39.1335 20.1935 39.1941 19.953 39.4696C19.5339 39.9497 19.4619 40.2552 19.6422 40.7885C19.8589 41.4295 20.49 41.6729 21.9347 41.6729C23.8501 41.6729 24.3978 41.2362 24.3978 39.7087C24.3978 39.0694 24.5216 38.9956 24.8901 39.4154C25.2548 39.8309 26.7993 40.5023 27.6451 40.6128C30.4931 40.9853 33.1658 39.1271 33.8601 36.2917C34.0451 35.536 34.1642 35.379 35.423 34.2317L36.7857 32.9898L36.9029 33.7836C36.9674 34.2202 37.0314 35.5185 37.0452 36.6687C37.0736 39.0346 36.8939 39.9742 36.0689 41.7753C35.4336 43.1623 35.0241 43.7732 34.0112 44.8453C33.1316 45.7762 26.4778 50.8432 25.219 51.5407C22.9461 52.7999 20.0539 52.7999 17.781 51.5407C16.5222 50.8432 9.86839 45.7762 8.98877 44.8453C7.97528 43.7726 7.56568 43.1615 6.93179 41.7753Z" fill="#33DDBB"/>
<path d="M27.2231 32.8085C26.2709 33.0744 25.9358 34.3501 26.6631 34.94C26.9897 35.2048 27.2479 35.2496 28.449 35.2496C29.7292 35.2496 29.8808 35.2191 30.1681 34.904C30.6113 34.4174 30.5901 33.6129 30.1223 33.1598C29.8185 32.8655 29.584 32.8038 28.6372 32.7689C28.0188 32.7462 27.3825 32.7639 27.2231 32.8085Z" fill="#33DDBB"/>
<path fill-rule="evenodd" clip-rule="evenodd" d="M20.6307 10.397C16.6151 10.8216 13.6194 12.2376 11.1044 14.8999C9.43285 16.6695 7.9095 19.485 7.3963 21.7538L7.18824 22.6729L9.09193 22.776C15.6251 23.1296 21.5168 21.0238 24.2862 17.3453C25.4386 15.8146 25.9866 15.9121 27.2936 17.8805C29.401 21.0544 32.0915 23.3236 34.675 24.1065C35.9775 24.5012 36.0329 24.4768 35.9154 23.5607C35.6724 21.6673 35.2683 20.2933 34.4752 18.664C32.7282 15.0752 29.9364 12.5424 26.2813 11.2306C24.6006 10.6275 22.0335 10.2487 20.6307 10.397Z" fill="#33DDBB"/>
<path d="M13.4587 32.8085C12.5397 33.0651 12.1905 34.2837 12.8522 34.9249C13.1482 35.2115 13.35 35.2496 14.5715 35.2496C15.752 35.2496 16.0112 35.2042 16.3369 34.94C16.8598 34.516 16.87 33.6556 16.3579 33.1598C16.0541 32.8655 15.8197 32.8038 14.8728 32.7689C14.2544 32.7462 13.6181 32.7639 13.4587 32.8085Z" fill="#33DDBB"/>
<path d="M17.5091 43.5335C16.9463 44.1135 17.0277 44.733 17.7609 45.4521C18.0951 45.7798 18.7308 46.223 19.1735 46.4373C19.881 46.7793 20.1633 46.8265 21.5 46.8265C22.8367 46.8265 23.119 46.7793 23.8265 46.4373C24.9682 45.8851 25.8466 44.9898 25.8466 44.3781C25.8466 43.3067 24.6555 42.8158 23.7594 43.5181C22.9277 44.1697 22.3538 44.3917 21.5 44.3917C20.6462 44.3917 20.0723 44.1697 19.2406 43.5181C18.6476 43.0534 17.9686 43.0595 17.5091 43.5335Z" fill="#33DDBB"/>
</g>
<path id="Vector 12" d="M16 8C20.1655 6.44425 22.5089 6.38529 27 8L25.9 6.49909C22.3061 3.13388 20.4697 3.20023 17.1 6.49909L16 8Z" fill="#33DDBB"/>
</g>
</g>
<defs>
<clipPath id="clip0_435_127">
<rect width="43" height="55" fill="white"/>
</clipPath>
</defs>
</svg>
