<svg width="50" height="50" viewBox="0 0 50 50" fill="none" xmlns="http://www.w3.org/2000/svg">
<g id="autocredit_idea_desktop_40x40_01-12-2020 1">
<path id="Vector" d="M24.5008 22L21.7858 30.4034H13L20.1079 35.5974L17.3912 44L24.5008 38.8077L31.6088 44L28.8921 35.5974L36 30.4034H27.2142L24.5008 22Z" fill="#33DDBB"/>
<path id="Vector_2" d="M35.1434 20.4325V13.1842C35.1434 12.8808 34.976 12.6258 34.7389 12.4675L43 0H27.1615L24.5008 3.955L21.8402 0H6L14.2603 12.4667C14.1383 12.5438 14.0376 12.6498 13.9672 12.775C13.8968 12.9002 13.8588 13.0408 13.8566 13.1842V20.4325C10.0885 23.4892 7.68182 28.1317 7.68182 33.3333C7.68182 42.5375 15.2122 50 24.5 50C25.0727 50 25.6394 49.9708 26.197 49.915C34.6876 49.0725 41.3182 41.9708 41.3182 33.3333C41.3182 28.1317 38.9115 23.4892 35.1434 20.4325ZM31.9219 0.833333H37.2431L29.8221 11.8658L27.1615 7.91083L31.9219 0.833333ZM32.4827 15.8208L33.301 14.6058C33.3447 14.71 33.3699 14.8233 33.3699 14.9425V18.4583C33.368 18.6779 33.2781 18.8877 33.1202 19.0417C30.5974 17.5433 27.6551 16.6667 24.5 16.6667C21.4621 16.6673 18.4819 17.4887 15.8798 19.0425C15.7218 18.8882 15.632 18.6781 15.6301 18.4583V14.9425C15.6301 14.8233 15.6553 14.7092 15.699 14.6058L16.5173 15.8217L32.4827 15.8208ZM11.7569 0.833333H17.0781L26.6006 14.9875H21.2793L11.7569 0.833333ZM24.5 47.5C16.6055 47.5 10.2045 41.1575 10.2045 33.3333C10.2045 25.5092 16.6055 19.1667 24.5 19.1667C32.3945 19.1667 38.7955 25.5092 38.7955 33.3333C38.7955 41.1575 32.3945 47.5 24.5 47.5Z" fill="#33DDBB"/>
</g>
</svg>
