<svg width="50" height="50" viewBox="0 0 50 50" fill="none" xmlns="http://www.w3.org/2000/svg">
<g id="autocredit_idea_desktop_40x40_01-12-2020 1">
<g id="Group 136">
<g id="Vector">
<path d="M45.1842 22.9982C45.3687 22.6533 45.5028 22.2729 45.5028 21.8444V18.5147C45.515 16.4513 45.0262 14.4235 44.0893 12.6508C43.1525 10.8782 41.8033 9.42813 40.1878 8.45778L39.6358 8.12H40.9921C41.2237 8.11907 41.4517 8.05638 41.6576 7.93703C41.8636 7.81769 42.0415 7.64509 42.1769 7.43336C42.3122 7.22163 42.4012 6.97679 42.4365 6.71885C42.4718 6.46091 42.4525 6.19722 42.38 5.94933C41.9729 4.51308 41.1716 3.25975 40.0916 2.37018C39.0115 1.48061 37.7087 1.00081 36.3711 1H19.2907C17.3666 1 15.8052 2.63733 15.5844 4.75644C15.5686 4.75644 15.5497 4.76178 15.5292 4.76533C15.5087 4.76889 15.4898 4.77422 15.474 4.77422H14.78C9.10232 4.77422 4.49706 9.97067 4.49706 16.3796V21.5422C4.49706 22.1111 4.58854 22.6409 4.77464 23.0818C3.58866 24.5129 2.92618 26.3963 2.91992 28.3547C2.921 29.9775 3.37373 31.5591 4.21434 32.8766C5.05495 34.1941 6.24107 35.1812 7.60561 35.6987C7.6135 35.7502 7.62769 35.8053 7.63558 35.8569L11.1177 37.0889C11.0873 36.9658 11.058 36.842 11.0296 36.7173C10.8249 35.8388 10.6742 34.9454 10.5785 34.0436L10.4382 32.6729L9.22692 32.4844C7.45736 32.2142 6.07421 30.4773 6.07421 28.3547C6.07421 27.0604 6.60886 25.9387 7.41162 25.176L7.49364 27.7004C7.52518 28.68 8.36106 29.4444 9.22849 29.4444V21.9298C9.4209 20.1698 10.4618 14.0009 12.0831 14.0009H14.0388C17.1142 14.0009 19.6849 11.5618 20.3316 8.32267C21.2949 10.0593 22.6339 11.4915 24.223 12.4847C25.812 13.478 27.5989 13.9997 29.4159 14.0009H37.5697C39.3519 14.0009 40.5348 20.2907 40.7713 22.2302V29.4444C41.6388 29.4444 42.4747 28.68 42.5062 27.7004L42.5803 25.6507C43.2822 26.4027 43.9256 27.3502 43.9256 28.3547C43.9256 30.6729 42.2775 32.5236 40.2777 32.5236H40.2193L38.7952 32.4987L38.6296 34.0916C38.5555 34.7956 38.4419 35.4711 38.3094 36.1324L42.3643 35.6809C43.7351 35.1754 44.9292 34.1947 45.7761 32.8787C46.6229 31.5627 47.0793 29.9787 47.0799 28.3529C47.0799 26.2764 46.3544 24.3956 45.1842 22.9982Z" fill="#33DDBB"/>
<path d="M15.3525 19.9209C16.1742 19.5902 17.3524 19.3413 18.909 19.5067C19.1171 19.5286 19.3244 19.4564 19.4853 19.3061C19.6462 19.1557 19.7475 18.9395 19.767 18.7049C19.7864 18.4703 19.7224 18.2366 19.589 18.0553C19.4556 17.8739 19.2638 17.7597 19.0557 17.7378C17.2688 17.5476 15.8604 17.8302 14.821 18.248C14.7206 18.2847 14.6277 18.3437 14.5478 18.4216C14.468 18.4995 14.4028 18.5947 14.3562 18.7015C14.3096 18.8083 14.2826 18.9246 14.2766 19.0435C14.2706 19.1623 14.2859 19.2813 14.3215 19.3934C14.3571 19.5054 14.4123 19.6083 14.4839 19.6959C14.5554 19.7834 14.6418 19.8539 14.738 19.9031C14.8341 19.9523 14.9381 19.9792 15.0437 19.9823C15.1492 19.9853 15.2543 19.9645 15.3525 19.9209Z" fill="#33DDBB"/>
<path d="M31.0908 19.5049C32.6475 19.3396 33.824 19.5902 34.6473 19.9191C34.7449 19.9583 34.8483 19.9755 34.9517 19.9697C35.0552 19.9638 35.1566 19.9351 35.2502 19.8851C35.3438 19.835 35.4277 19.7647 35.4972 19.6781C35.5666 19.5916 35.6203 19.4904 35.6551 19.3804C35.6899 19.2705 35.7051 19.1539 35.6999 19.0373C35.6948 18.9207 35.6693 18.8064 35.6249 18.7009C35.5805 18.5954 35.5181 18.5008 35.4413 18.4225C35.3645 18.3442 35.2748 18.2837 35.1772 18.2444C34.1379 17.8267 32.7279 17.544 30.941 17.7342C30.7327 17.7566 30.5408 17.8714 30.4076 18.0532C30.2743 18.2351 30.2106 18.4692 30.2305 18.704C30.2504 18.9388 30.3522 19.1551 30.5135 19.3053C30.6749 19.4555 30.8825 19.5273 31.0908 19.5049Z" fill="#33DDBB"/>
<path d="M32.8998 23.0089C30.5499 23.0089 28.6037 24.8489 28.1668 27.2933C28.0738 27.8267 28.4633 28.3244 28.9617 28.3244H29.2062C29.132 28.0339 29.0963 27.7325 29.1005 27.4302C29.1005 25.5547 30.4852 24.024 32.1822 24.024C33.8808 24.024 35.2655 25.5547 35.2655 27.4302C35.2655 27.7342 35.2198 28.0364 35.1615 28.3244H36.6519C37.2748 28.3244 37.7417 27.688 37.5871 27.0338C37.0588 24.7298 35.1583 23.0089 32.8998 23.0089Z" fill="#33DDBB"/>
<path d="M32.1838 25.4871C31.9662 25.4871 31.758 25.5298 31.5656 25.6098C31.6322 25.6652 31.6863 25.7376 31.7236 25.821C31.7608 25.9043 31.7802 25.9964 31.7801 26.0898C31.7794 26.1696 31.7649 26.2485 31.7372 26.322C31.7095 26.3955 31.6693 26.4622 31.6187 26.5181C31.5682 26.5741 31.5084 26.6183 31.4427 26.6482C31.377 26.6781 31.3068 26.6931 31.2359 26.6924C31.1304 26.6932 31.0269 26.6593 30.9381 26.5949C30.8494 26.5305 30.7791 26.4384 30.736 26.3298C30.5334 26.6519 30.4248 27.0371 30.4253 27.432C30.4253 27.7591 30.5026 28.0667 30.6272 28.344H33.7404C33.8713 28.0624 33.941 27.7499 33.9439 27.432C33.9423 27.1738 33.8954 26.9185 33.8059 26.6809C33.7164 26.4432 33.5862 26.2278 33.4226 26.047C33.259 25.8663 33.0654 25.7238 32.8528 25.6277C32.6402 25.5316 32.4128 25.4838 32.1838 25.4871Z" fill="#33DDBB"/>
<path d="M25.0062 35.5956C26.0629 35.5956 27.0092 34.9804 27.5596 34.0436C28.0643 33.1938 27.5281 32.04 26.6291 32.04H23.3644C22.4655 32.04 21.9292 33.1938 22.4339 34.0436C23.0017 34.9804 23.948 35.5956 25.0062 35.5956Z" fill="#33DDBB"/>
<path d="M29.7771 37.6933C28.3908 38.5342 26.7695 38.9964 25.0204 38.9964C23.3646 39.0036 21.732 38.5563 20.2638 37.6933C20.1617 37.6315 20.0443 37.61 19.9301 37.6322C19.816 37.6543 19.7117 37.7189 19.6338 37.8156C19.556 37.9123 19.5091 38.0356 19.5007 38.1659C19.4922 38.2961 19.5227 38.4258 19.5872 38.5342C20.1701 39.5627 20.9733 40.4091 21.9229 40.9955C22.8725 41.5818 23.9377 41.8892 25.0204 41.8892C26.1031 41.8892 27.1684 41.5818 28.118 40.9955C29.0675 40.4091 29.8708 39.5627 30.4537 38.5342C30.7391 38.0329 30.2502 37.4249 29.7771 37.6933Z" fill="#33DDBB"/>
<path d="M17.8145 25.4871C17.5668 25.4871 17.3334 25.5422 17.1221 25.6436C17.1781 25.6995 17.2229 25.7682 17.2536 25.8452C17.2843 25.9221 17.3002 26.0054 17.3003 26.0898C17.2986 26.2512 17.2403 26.4053 17.138 26.5183C17.0357 26.6312 16.8978 26.6939 16.7546 26.6924C16.6666 26.6924 16.5799 26.6687 16.5018 26.6232C16.4236 26.5778 16.3562 26.5119 16.3051 26.4311C16.1409 26.7321 16.0541 27.0786 16.0544 27.432C16.0544 27.7591 16.1316 28.0667 16.2562 28.344H19.3695C19.4998 28.0623 19.569 27.7497 19.5714 27.432C19.5702 27.174 19.5236 26.9188 19.4345 26.6811C19.3454 26.4435 19.2154 26.228 19.0521 26.0473C18.8888 25.8665 18.6954 25.7239 18.483 25.6278C18.2705 25.5316 18.0433 25.4838 17.8145 25.4871Z" fill="#33DDBB"/>
<path d="M20.8978 27.4302C20.8978 27.7502 20.8678 28.0382 20.7937 28.3244H21.0381C21.5365 28.3244 21.9261 27.8267 21.833 27.2933C21.3962 24.8489 19.45 23.0089 17.0984 23.0089C14.8415 23.0089 12.9411 24.7298 12.4127 27.0356C12.2566 27.688 12.7234 28.3244 13.348 28.3244H14.8384C14.7721 28.0321 14.7367 27.7319 14.7327 27.4302C14.7327 25.5547 16.119 24.024 17.816 24.024C19.513 24.024 20.8978 25.5564 20.8978 27.4302Z" fill="#33DDBB"/>
</g>
<path id="Vector 11" d="M9.63965 35.5601C19.7371 50.8749 29.0275 50.9651 39.3996 35.5601" stroke="#33DDBB" stroke-width="2" stroke-linecap="round"/>
</g>
</g>
</svg>
